HIERARCHY
ROOT Hips
{
	OFFSET 0.000000 35.082581 0.000000
	CHANNELS 6 Xposition Yposition Zposition Xrotation Yrotation Zrotation 
	JOINT Spine
	{
		OFFSET 0.000000 6.876099 0.125700
		CHANNELS 3 Xrotation Yrotation Zrotation
		JOINT Spine1
		{
			OFFSET 0.000000 5.730043 0.104720
			CHANNELS 3 Xrotation Yrotation Zrotation
			JOINT Spine1_split
			{
				OFFSET 0.000000 5.730043 0.104720
				CHANNELS 3 Xrotation Yrotation Zrotation
				JOINT Spine2
				{
					OFFSET 0.000000 5.730043 0.104720
					CHANNELS 3 Xrotation Yrotation Zrotation
					JOINT Neck
					{
						OFFSET 0.000000 10.314075 0.188496
						CHANNELS 3 Xrotation Yrotation Zrotation
						JOINT Head
						{
							OFFSET 0.000000 7.643700 -2.377400
							CHANNELS 3 Xrotation Yrotation Zrotation
							JOINT HeadTop_End
							{
								OFFSET 0.000000 43.788605 -13.619600
								CHANNELS 3 Xrotation Yrotation Zrotation
								End Site
								{
									OFFSET 0.000000 0.000000 0.000000
								}
							}
						}
					}
					JOINT LeftShoulder
					{
						OFFSET 2.196100 4.412489 0.087492
						CHANNELS 3 Xrotation Yrotation Zrotation
						JOINT LeftShoulder_split
						{
							OFFSET 2.196100 4.412489 0.087492
							CHANNELS 3 Xrotation Yrotation Zrotation
							JOINT LeftArm
							{
								OFFSET 8.771219 -2.981674 -0.026999
								CHANNELS 3 Xrotation Yrotation Zrotation
								JOINT LeftForeArm
								{
									OFFSET 8.512804 0.000000 -0.000000
									CHANNELS 3 Xrotation Yrotation Zrotation
									JOINT LeftHand
									{
										OFFSET 18.484802 0.000000 -0.000000
										CHANNELS 3 Xrotation Yrotation Zrotation
										JOINT LeftHandThumb1
										{
											OFFSET 2.499420 -1.158070 2.653252
											CHANNELS 3 Xrotation Yrotation Zrotation
											JOINT LeftHandThumb2
											{
												OFFSET 2.370079 -1.368366 1.368366
												CHANNELS 3 Xrotation Yrotation Zrotation
												JOINT LeftHandThumb3
												{
													OFFSET 2.676727 -1.545410 1.545409
													CHANNELS 3 Xrotation Yrotation Zrotation
													JOINT LeftHandThumb4
													{
														OFFSET 1.692226 -0.977005 0.977007
														CHANNELS 3 Xrotation Yrotation Zrotation
														End Site
														{
															OFFSET 0.000000 0.000000 0.000000
														}
													}
												}
											}
										}
										JOINT LeftHandIndex1
										{
											OFFSET 7.924831 -0.457527 2.345128
											CHANNELS 3 Xrotation Yrotation Zrotation
											JOINT LeftHandIndex2
											{
												OFFSET 3.643303 0.000000 0.000000
												CHANNELS 3 Xrotation Yrotation Zrotation
												JOINT LeftHandIndex3
												{
													OFFSET 3.810799 0.000000 0.000000
													CHANNELS 3 Xrotation Yrotation Zrotation
													JOINT LeftHandIndex4
													{
														OFFSET 2.403702 0.000000 0.000000
														CHANNELS 3 Xrotation Yrotation Zrotation
														End Site
														{
															OFFSET 0.000000 0.000000 0.000000
														}
													}
												}
											}
										}
										JOINT LeftHandMiddle1
										{
											OFFSET 8.563995 0.000000 -0.000000
											CHANNELS 3 Xrotation Yrotation Zrotation
											JOINT LeftHandMiddle2
											{
												OFFSET 3.861618 0.000000 0.000000
												CHANNELS 3 Xrotation Yrotation Zrotation
												JOINT LeftHandMiddle3
												{
													OFFSET 3.701603 0.000000 0.000000
													CHANNELS 3 Xrotation Yrotation Zrotation
													JOINT LeftHandMiddle4
													{
														OFFSET 2.322544 0.000000 0.000000
														CHANNELS 3 Xrotation Yrotation Zrotation
														End Site
														{
															OFFSET 0.000000 0.000000 0.000000
														}
													}
												}
											}
										}
										JOINT LeftHandRing1
										{
											OFFSET 8.426460 -0.424637 -3.286992
											CHANNELS 3 Xrotation Yrotation Zrotation
											JOINT LeftHandRing2
											{
												OFFSET 3.126408 0.000000 0.000000
												CHANNELS 3 Xrotation Yrotation Zrotation
												JOINT LeftHandRing3
												{
													OFFSET 3.085026 0.000000 0.000000
													CHANNELS 3 Xrotation Yrotation Zrotation
													JOINT LeftHandRing4
													{
														OFFSET 1.644005 0.000000 0.000000
														CHANNELS 3 Xrotation Yrotation Zrotation
														End Site
														{
															OFFSET 0.000000 0.000000 0.000000
														}
													}
												}
											}
										}
									}
								}
							}
						}
					}
					JOINT RightShoulder
					{
						OFFSET -2.196100 4.412496 0.070690
						CHANNELS 3 Xrotation Yrotation Zrotation
						JOINT RightShoulder_split
						{
							OFFSET -2.196100 4.412496 0.070690
							CHANNELS 3 Xrotation Yrotation Zrotation
							JOINT RightArm
							{
								OFFSET -8.771282 -2.981682 -0.094208
								CHANNELS 3 Xrotation Yrotation Zrotation
								JOINT RightForeArm
								{
									OFFSET -8.494598 0.000000 0.000000
									CHANNELS 3 Xrotation Yrotation Zrotation
									JOINT RightHand
									{
										OFFSET -18.483803 0.000000 0.000001
										CHANNELS 3 Xrotation Yrotation Zrotation
										JOINT RightHandThumb1
										{
											OFFSET -2.527351 -1.008072 2.575253
											CHANNELS 3 Xrotation Yrotation Zrotation
											JOINT RightHandThumb2
											{
												OFFSET -2.321518 -1.340328 1.340329
												CHANNELS 3 Xrotation Yrotation Zrotation
												JOINT RightHandThumb3
												{
													OFFSET -2.657753 -1.534454 1.534455
													CHANNELS 3 Xrotation Yrotation Zrotation
													JOINT RightHandThumb4
													{
														OFFSET -1.807510 -1.043568 1.043567
														CHANNELS 3 Xrotation Yrotation Zrotation
														End Site
														{
															OFFSET 0.000000 0.000000 0.000000
														}
													}
												}
											}
										}
										JOINT RightHandIndex1
										{
											OFFSET -8.811420 0.015533 2.887987
											CHANNELS 3 Xrotation Yrotation Zrotation
											JOINT RightHandIndex2
											{
												OFFSET -3.537502 0.000000 0.000000
												CHANNELS 3 Xrotation Yrotation Zrotation
												JOINT RightHandIndex3
												{
													OFFSET -3.356201 0.000000 0.000000
													CHANNELS 3 Xrotation Yrotation Zrotation
													JOINT RightHandIndex4
													{
														OFFSET -1.933098 0.000000 0.000000
														CHANNELS 3 Xrotation Yrotation Zrotation
														End Site
														{
															OFFSET 0.000000 0.000000 0.000000
														}
													}
												}
											}
										}
										JOINT RightHandMiddle1
										{
											OFFSET -8.178135 0.000000 0.000000
											CHANNELS 3 Xrotation Yrotation Zrotation
											JOINT RightHandMiddle2
											{
												OFFSET -3.901302 0.000000 0.000000
												CHANNELS 3 Xrotation Yrotation Zrotation
												JOINT RightHandMiddle3
												{
													OFFSET -3.909599 0.000000 0.000000
													CHANNELS 3 Xrotation Yrotation Zrotation
													JOINT RightHandMiddle4
													{
														OFFSET -2.376003 0.000000 0.000000
														CHANNELS 3 Xrotation Yrotation Zrotation
														End Site
														{
															OFFSET 0.000000 0.000000 0.000000
														}
													}
												}
											}
										}
										JOINT RightHandRing1
										{
											OFFSET -7.559013 0.014137 -2.865403
											CHANNELS 3 Xrotation Yrotation Zrotation
											JOINT RightHandRing2
											{
												OFFSET -3.449306 0.000000 0.000000
												CHANNELS 3 Xrotation Yrotation Zrotation
												JOINT RightHandRing3
												{
													OFFSET -3.362106 0.000000 0.000000
													CHANNELS 3 Xrotation Yrotation Zrotation
													JOINT RightHandRing4
													{
														OFFSET -2.076401 0.000000 0.000000
														CHANNELS 3 Xrotation Yrotation Zrotation
														End Site
														{
															OFFSET 0.000000 0.000000 0.000000
														}
													}
												}
											}
										}
									}
								}
							}
						}
					}
				}
			}
		}
	}
	JOINT LeftUpLeg
	{
		OFFSET 10.205400 -3.823500 0.155100
		CHANNELS 3 Xrotation Yrotation Zrotation
		JOINT LeftLeg
		{
			OFFSET 0.708757 -12.982077 0.567790
			CHANNELS 3 Xrotation Yrotation Zrotation
			JOINT LeftFoot
			{
				OFFSET -0.708756 -10.717838 -2.184338
				CHANNELS 3 Xrotation Yrotation Zrotation
				JOINT LeftToeBase
				{
					OFFSET 0.108149 -7.191104 7.560241
					CHANNELS 3 Xrotation Yrotation Zrotation
					JOINT LeftToe_End
					{
						OFFSET 0.070230 0.081724 4.490308
						CHANNELS 3 Xrotation Yrotation Zrotation
						End Site
						{
							OFFSET 0.000000 0.000000 0.000000
						}
					}
				}
			}
		}
	}
	JOINT RightUpLeg
	{
		OFFSET -10.205400 -3.823500 0.005500
		CHANNELS 3 Xrotation Yrotation Zrotation
		JOINT RightLeg
		{
			OFFSET -0.708756 -12.982134 0.610632
			CHANNELS 3 Xrotation Yrotation Zrotation
			JOINT RightFoot
			{
				OFFSET 0.708754 -10.717769 -1.945823
				CHANNELS 3 Xrotation Yrotation Zrotation
				JOINT RightToeBase
				{
					OFFSET -0.108140 -7.191069 7.372968
					CHANNELS 3 Xrotation Yrotation Zrotation
					JOINT RightToe_End
					{
						OFFSET -0.070227 0.081735 4.479403
						CHANNELS 3 Xrotation Yrotation Zrotation
						End Site
						{
							OFFSET 0.000000 0.000000 0.000000
						}
					}
				}
			}
		}
	}
}
MOTION
Frames: 4
Frame Time: 0.016667
0.920693 27.256107 -1.048076 -5.066858 -42.290131 0.364327 9.463565 6.951571 -1.709076 2.187715 0.989895 -0.914785 0.000000 0.000000 0.000000 2.202829 0.982770 -0.893560 0.084650 13.220559 4.538682 8.920920 20.138140 -4.130234 -0.000001 -0.000000 -0.000001 1.117174 3.546359 -8.633268 0.000000 0.000000 0.000000 -53.487027 4.935510 -51.503004 0.000026 -106.358053 0.000036 1.988594 -7.706145 -15.869227 -6.141209 -11.690786 -6.761689 9.914096 42.595495 3.409870 -0.422813 8.108077 27.509115 -0.000001 0.000001 0.000002 0.255306 3.378225 -45.814348 5.654085 5.847787 -88.067462 2.162167 4.544814 -50.866372 -0.000000 0.000001 0.000001 -0.461486 3.841600 -39.722700 6.450752 5.820367 -95.892844 2.182886 4.561575 -51.127733 -0.000000 -0.000001 0.000003 0.469722 4.966840 -39.799451 8.181038 5.368625 -113.502984 3.200491 5.218134 -63.022996 0.000000 -0.000002 -0.000000 3.036133 13.027208 -5.371451 0.000000 0.000000 0.000000 -48.713736 27.172844 83.457084 -0.000045 105.988301 0.000003 -8.345378 17.548086 8.775692 -7.341093 13.749658 7.412327 9.855767 -44.489107 -3.903265 -0.115788 -14.513085 -28.973857 -0.000000 0.000002 0.000005 -0.124380 -2.384775 45.108871 4.500605 -4.654555 88.071184 1.723239 -3.618379 50.920105 -0.000001 0.000001 0.000001 -0.761622 -2.932901 39.031065 5.133905 -4.632759 95.881663 1.739750 -3.631696 51.181377 -0.000000 -0.000001 -0.000000 0.154763 -4.068808 39.122671 6.509727 -4.273573 113.462877 2.549568 -4.153929 63.067344 0.000000 -0.000001 -0.000001 -38.279877 0.283661 24.724569 64.806051 -10.566830 3.835733 -23.707057 -5.137197 -21.298994 -1.594224 0.000008 0.000003 0.000000 0.000002 -0.000000 -13.538521 -9.958126 -37.977071 67.040943 -0.359894 -6.535123 -40.067679 -15.839077 29.589240 -1.421664 -0.000021 -0.000002 0.000000 -0.000000 -0.000000 
0.921385 27.265697 -1.040427 -4.996142 -42.279728 0.317806 9.446269 6.997804 -1.726164 2.175732 1.007914 -0.914782 0.000000 0.000000 0.000000 2.190587 1.000771 -0.893560 0.049150 13.241666 4.506406 8.795704 20.178667 -4.038384 -0.000000 0.000000 0.000000 1.060104 3.401038 -8.205096 0.000000 0.000000 0.000000 -53.252629 4.575421 -50.958935 -0.000011 -106.452262 -0.000009 2.080125 -7.637609 -15.690623 -6.141213 -11.690782 -6.761699 9.914099 42.595498 3.409871 -0.422807 8.108082 27.509121 -0.000004 -0.000001 -0.000002 0.255304 3.378225 -45.814351 5.654088 5.847785 -88.067462 2.162165 4.544813 -50.866376 -0.000000 -0.000000 -0.000000 -0.461485 3.841598 -39.722697 6.450758 5.820365 -95.892844 2.182891 4.561576 -51.127726 0.000001 0.000000 0.000002 0.469722 4.966841 -39.799454 8.181041 5.368625 -113.502984 3.200493 5.218136 -63.022989 0.000000 0.000002 -0.000001 2.992704 12.851435 -5.316470 0.000000 0.000000 0.000000 -49.165658 27.692727 83.232590 -0.000038 105.878034 -0.000006 -8.322235 17.530724 8.373424 -7.341093 13.749658 7.412323 9.855773 -44.489107 -3.903267 -0.115784 -14.513083 -28.973854 -0.000001 0.000005 0.000002 -0.124381 -2.384775 45.108871 4.500600 -4.654557 88.071184 1.723241 -3.618376 50.920105 -0.000000 0.000000 0.000001 -0.761621 -2.932897 39.031065 5.133907 -4.632759 95.881663 1.739752 -3.631695 51.181377 -0.000001 0.000003 -0.000000 0.154764 -4.068806 39.122675 6.509726 -4.273573 113.462877 2.549569 -4.153929 63.067344 -0.000000 0.000000 -0.000002 -38.317112 0.240032 24.939953 64.812410 -10.403612 3.656184 -23.758939 -5.329386 -21.297544 -1.594224 0.000008 0.000003 0.000000 0.000001 0.000000 -13.669593 -10.185561 -37.987169 66.891273 -0.157876 -6.508554 -40.005019 -15.744582 29.408110 -1.421659 -0.000022 -0.000001 -0.000000 0.000001 0.000000 
0.920186 27.278908 -1.027280 -4.921232 -42.301014 0.275467 9.420890 7.015057 -1.747491 2.160457 1.014522 -0.917778 0.000000 0.000000 0.000000 2.175230 1.007274 -0.896827 -0.002262 13.274985 4.469518 8.607458 20.275410 -3.937012 -0.000000 0.000000 -0.000001 1.001839 3.254862 -7.755130 0.000000 0.000000 0.000000 -53.008958 4.373923 -50.549301 -0.000014 -106.685615 -0.000032 2.320286 -7.487244 -15.637254 -6.141213 -11.690786 -6.761696 9.914101 42.595495 3.409863 -0.422816 8.108079 27.509116 -0.000000 0.000003 -0.000002 0.255306 3.378226 -45.814351 5.654084 5.847783 -88.067462 2.162164 4.544812 -50.866376 0.000000 -0.000001 0.000002 -0.461482 3.841602 -39.722707 6.450753 5.820367 -95.892844 2.182889 4.561576 -51.127733 -0.000001 0.000004 -0.000001 0.469724 4.966844 -39.799454 8.181040 5.368623 -113.502984 3.200494 5.218135 -63.022989 -0.000000 0.000001 0.000002 2.949128 12.677396 -5.252472 0.000000 0.000000 0.000000 -49.612698 28.281027 83.025874 -0.000077 105.788647 0.000062 -8.265625 17.517740 7.916573 -7.341093 13.749659 7.412327 9.855765 -44.489103 -3.903275 -0.115790 -14.513078 -28.973854 -0.000000 0.000001 0.000002 -0.124380 -2.384777 45.108871 4.500603 -4.654555 88.071191 1.723240 -3.618373 50.920102 0.000000 0.000000 0.000002 -0.761621 -2.932900 39.031061 5.133904 -4.632760 95.881663 1.739752 -3.631695 51.181381 -0.000001 -0.000001 -0.000001 0.154762 -4.068812 39.122671 6.509725 -4.273571 113.462877 2.549569 -4.153929 63.067344 0.000000 -0.000000 -0.000002 -38.364100 0.230092 25.163916 64.813243 -10.494758 3.478541 -23.772549 -5.398813 -21.180939 -1.594225 0.000007 0.000004 0.000000 0.000002 0.000000 -13.750873 -10.327897 -38.004798 66.717021 0.035470 -6.386594 -39.928272 -15.634993 29.196887 -1.421664 -0.000022 -0.000003 -0.000000 -0.000001 -0.000000 
0.918508 27.296722 -1.008443 -4.839323 -42.371369 0.245366 9.385790 7.008271 -1.776982 2.140903 1.011709 -0.925598 0.000000 0.000000 0.000000 2.155734 1.004237 -0.904948 -0.072027 13.322209 4.429951 8.331898 20.440827 -3.819020 0.000000 0.000000 -0.000000 0.942415 3.109341 -7.280666 0.000000 0.000000 0.000000 -52.751829 4.313191 -50.243411 -0.000005 -107.038790 -0.000021 2.688486 -7.265124 -15.676430 -6.141213 -11.690791 -6.761685 9.914101 42.595501 3.409868 -0.422812 8.108077 27.509121 -0.000001 0.000005 0.000003 0.255303 3.378223 -45.814344 5.654087 5.847787 -88.067462 2.162167 4.544813 -50.866372 0.000001 -0.000001 0.000001 -0.461485 3.841599 -39.722693 6.450755 5.820367 -95.892844 2.182891 4.561579 -51.127729 -0.000000 0.000001 0.000002 0.469718 4.966839 -39.799447 8.181038 5.368623 -113.502984 3.200494 5.218135 -63.022989 -0.000000 -0.000003 0.000001 2.906338 12.509034 -5.180300 0.000000 0.000000 0.000000 -50.050629 28.941403 82.820825 -0.000074 105.714260 0.000032 -8.193992 17.536255 7.412593 -7.341097 13.749659 7.412330 9.855776 -44.489103 -3.903269 -0.115787 -14.513083 -28.973857 -0.000001 -0.000002 -0.000000 -0.124381 -2.384777 45.108871 4.500606 -4.654555 88.071184 1.723237 -3.618373 50.920105 0.000000 -0.000001 0.000001 -0.761618 -2.932896 39.031065 5.133905 -4.632760 95.881663 1.739753 -3.631694 51.181374 -0.000001 -0.000001 0.000000 0.154763 -4.068810 39.122671 6.509723 -4.273573 113.462877 2.549570 -4.153929 63.067344 -0.000000 -0.000001 -0.000001 -38.363745 0.285402 25.390289 64.794508 -10.695144 3.298923 -23.806455 -5.348875 -20.996312 -1.594224 0.000013 0.000004 -0.000000 0.000000 0.000000 -13.804639 -10.365943 -38.025504 66.526029 0.311973 -6.174847 -39.836744 -15.580088 28.904104 -1.421658 -0.000021 -0.000001 -0.000000 -0.000001 0.000000 
